<svg xmlns="http://www.w3.org/2000/svg" width="29.114" height="27.732" viewBox="0 0 29.114 27.732">
  <g id="Iconly_Light-Outline_Heart" data-name="Iconly/Light-Outline/Heart" transform="translate(-2 -3)">
    <g id="Heart" transform="translate(2 3)">
      <path id="Combined-Shape" d="M14.555,1.478A9.8,9.8,0,0,1,22.592.462c5.772,1.862,7.564,8.154,5.961,13.161C26.081,21.488,15.519,27.354,15.071,27.6a1.064,1.064,0,0,1-1.022,0C13.6,27.36,3.118,21.58.563,13.625a0,0,0,0,1,0,0C-1.043,8.615.743,2.321,6.51.462A9.569,9.569,0,0,1,14.555,1.478ZM7.164,2.493C2.5,4,1.326,9.016,2.594,12.974c1.994,6.2,9.871,11.219,11.964,12.46,2.1-1.254,10.034-6.325,11.964-12.455C27.789,9.017,26.613,4,21.94,2.493a7.521,7.521,0,0,0-6.728,1.126,1.067,1.067,0,0,1-1.294.009A7.443,7.443,0,0,0,7.164,2.493Zm13.41,2.824A5.013,5.013,0,0,1,24.037,9.69a1.066,1.066,0,0,1-.977,1.149c-.03,0-.058,0-.088,0a1.067,1.067,0,0,1-1.062-.98A2.878,2.878,0,0,0,19.92,7.348a1.067,1.067,0,1,1,.654-2.031Z" transform="translate(0 0)" fill="#2d2d2d" fill-rule="evenodd"/>
    </g>
  </g>
</svg>
